<svg width="442" height="769" viewBox="0 0 442 769" fill="none" xmlns="http://www.w3.org/2000/svg">
<line x1="43.4219" y1="589.922" x2="43.4219" y2="695.922" stroke="#FFC700"/>
<rect x="32.4219" y="607.589" width="21" height="70.6667" rx="2" fill="#FFC700"/>
<line x1="75.8457" y1="512.922" x2="75.8457" y2="665.922" stroke="#FFC700"/>
<rect x="64.8457" y="530.579" width="21" height="70.6279" rx="2" fill="#FFC700"/>
<line x1="108.27" y1="422.922" x2="108.27" y2="542.922" stroke="#FFC700"/>
<rect x="97.2695" y="440.576" width="21" height="70.6172" rx="2" fill="#FFC700"/>
<line x1="140.691" y1="439.922" x2="140.691" y2="595.922" stroke="#6F3DFD"/>
<rect x="129.691" y="439.922" width="21" height="104" rx="2" fill="#6F3DFD"/>
<line x1="173.113" y1="469.922" x2="173.113" y2="625.922" stroke="#6F3DFD"/>
<rect x="162.113" y="539.185" width="21" height="53.417" rx="2" fill="#6F3DFD"/>
<line x1="237.961" y1="386.922" x2="237.961" y2="492.922" stroke="#FFC700"/>
<rect x="226.961" y="404.562" width="21" height="70.5555" rx="2" fill="#FFC700"/>
<line x1="270.383" y1="339.815" x2="270.383" y2="445.922" stroke="#FFC700"/>
<rect x="259.383" y="300.922" width="21" height="127.177" rx="2" fill="#FFC700"/>
<line x1="302.805" y1="300.922" x2="302.805" y2="456.922" stroke="#6F3DFD"/>
<rect x="291.805" y="352.505" width="21" height="104" rx="2" fill="#6F3DFD"/>
<line x1="335.229" y1="364.922" x2="335.229" y2="520.922" stroke="#6F3DFD"/>
<rect x="324.229" y="461.112" width="21" height="41.9639" rx="2" fill="#6F3DFD"/>
<line x1="400.074" y1="436.566" x2="400.074" y2="768.393" stroke="#FFC700"/>
<rect x="389.074" y="363.393" width="21" height="220.52" rx="2" fill="#FFC700"/>
<line x1="205.537" y1="386.922" x2="205.537" y2="542.922" stroke="#6F3DFD"/>
<rect x="194.537" y="453.529" width="21" height="8" rx="2" fill="#6F3DFD"/>
<line x1="367.652" y1="395.922" x2="367.652" y2="515.922" stroke="#FFC700"/>
<rect x="356.652" y="447.529" width="21" height="13" rx="2" fill="#FFC700"/>
<line x1="11" y1="539.922" x2="11" y2="695.922" stroke="#6F3DFD"/>
<rect y="591.505" width="21" height="104" rx="2" fill="#6F3DFD"/>
<line x1="432" y1="0.392578" x2="432" y2="519.393" stroke="#6F3DFD"/>
<rect x="421" y="389.393" width="21" height="104" rx="2" fill="#6F3DFD"/>
</svg>
